<svg width="150" height="90" viewBox="0 0 150 90" fill="none" xmlns="http://www.w3.org/2000/svg">
<path fill-rule="evenodd" clip-rule="evenodd" d="M30.5998 42.382L33.8753 45.6575V51.6478H30.5998V42.382ZM28.7474 35.7883H20.7732V51.0794L24.0487 54.3549V58.984L17.4938 52.4367V33.8857L9.01681 25.4396C9.88059 24.7301 10.8164 24.1131 11.8089 23.5988L20.7732 32.5321V21.7503C22.1687 21.7353 23.5156 22.262 24.5307 23.2198C25.5458 24.1775 26.1499 25.4915 26.216 26.8855C26.2821 28.2795 25.8051 29.6448 24.8852 30.6943C23.9653 31.7438 22.6743 32.3957 21.2837 32.5128H25.4719L25.4873 32.5283L28.7474 35.7883ZM24.0338 51.6244L24.0493 35.8075L27.321 39.1024L27.3055 51.6244H24.0338ZM32.0119 39.1062L35.2836 42.3779H30.5965L27.3248 39.1062H32.0119ZM14.2266 35.2661V49.3544L3 37.9383C3.01547 36.5307 3.20883 35.1617 3.55688 33.8623L10.951 41.2564V36.6235L4.85627 30.5287C5.37427 29.5399 5.99239 28.6069 6.70093 27.7443L14.2266 35.2661ZM3.05801 47.2545V42.6254L24.0493 63.6128V68.2419L3.05801 47.2545ZM37.1476 47.5097H40.427L44.6616 51.6476C44.6809 52.368 44.5557 53.0849 44.2933 53.7561C44.031 54.4272 43.6369 55.039 43.1342 55.5553C42.6315 56.0717 42.0305 56.482 41.3666 56.7623C40.7027 57.0425 39.9894 57.1868 39.2688 57.1868C38.5482 57.1868 37.8349 57.0425 37.171 56.7623C36.5071 56.482 35.906 56.0717 35.4034 55.5553C34.9007 55.039 34.5065 54.4272 34.2442 53.7561C33.9819 53.0849 33.8566 52.368 33.8759 51.6476H37.1476V47.5097ZM64.6397 56.3889L67.0954 51.7211H58.2859L68.2401 32.6016H52.9336L50.4779 37.277H59.2875L49.3371 56.3889H64.6397ZM83.8289 42.1227H75.9823V37.277H83.8289V32.6016H70.2046V56.3927H83.8289V51.7211H75.9823V46.802H83.8289V42.1227ZM100.856 33.7424C99.5723 32.9225 97.8244 32.6016 94.7925 32.6016H86.6636V56.3927H96.4012C98.8221 56.3927 100.249 56.0717 101.429 55.2867C102.96 54.2503 103.853 52.2896 103.853 50.0814C103.853 48.3334 103.316 46.9412 102.248 45.9435C101.498 45.228 100.856 44.9071 99.3945 44.59C100.678 44.2303 101.212 43.9093 101.889 43.1978C102.96 42.1265 103.494 40.7343 103.494 39.0598C103.494 36.7743 102.496 34.744 100.856 33.7424ZM93.8643 42.4475H92.4412V36.9174H93.7947C96.5056 36.9174 97.6117 37.7372 97.6117 39.6631C97.6117 41.6277 96.5056 42.4475 93.8643 42.4475ZM94.545 52.2548H92.4412V46.6551H93.7599C95.5079 46.6551 96.0764 46.7247 96.7183 47.0804C97.5769 47.5445 98.0023 48.3682 98.0023 49.5091C98.0023 51.4349 96.9697 52.2548 94.545 52.2548ZM106.092 56.3927H111.874L111.87 47.1887L117.075 56.3927H123.994L118.75 47.6528C121.82 46.4385 123.352 44.0485 123.352 40.4134C123.352 37.8107 122.428 35.6721 120.784 34.3843C119.214 33.1739 116.932 32.6016 113.796 32.6016H106.092V56.3927ZM117.509 40.6609C117.509 42.7337 116.082 43.9403 113.73 43.9403H111.874V37.3466H114.086C116.116 37.3466 117.509 38.704 117.509 40.6609ZM147 56.3927H140.735L139.273 51.7134H131.566L130.096 56.3889H124.005L131.848 32.6054H139.196L147 56.3927ZM135.418 39.4156L133.028 47.034H137.804L135.418 39.4156Z" fill="white"/>
</svg>
